<svg width="20" height="20" viewBox="0 0 20 20" fill="none" xmlns="http://www.w3.org/2000/svg">
<path d="M2.85714 3.125C2.46429 3.125 2.14286 3.40625 2.14286 3.75V16.25C2.14286 16.5938 2.46429 16.875 2.85714 16.875H17.1429C17.5357 16.875 17.8571 16.5938 17.8571 16.25V3.75C17.8571 3.40625 17.5357 3.125 17.1429 3.125H2.85714ZM0 3.75C0 2.37109 1.28125 1.25 2.85714 1.25H17.1429C18.7188 1.25 20 2.37109 20 3.75V16.25C20 17.6289 18.7188 18.75 17.1429 18.75H2.85714C1.28125 18.75 0 17.6289 0 16.25V3.75ZM15.0446 8.16406L9.33036 13.1641C8.91071 13.5312 8.23214 13.5312 7.81696 13.1641L4.95982 10.6641C4.54018 10.2969 4.54018 9.70312 4.95982 9.33984C5.37946 8.97656 6.05804 8.97266 6.47321 9.33984L8.57143 11.1758L13.5268 6.83594C13.9464 6.46875 14.625 6.46875 15.0402 6.83594C15.4554 7.20312 15.4598 7.79687 15.0402 8.16016L15.0446 8.16406Z" fill="black"/>
</svg>
