<svg width="70" height="70" viewBox="0 0 70 70" fill="none" xmlns="http://www.w3.org/2000/svg">
<rect width="70" height="70" rx="4" fill="#C76CD7" fill-opacity="0.33"/>
<path d="M43.7648 35.0146C45.033 33.6064 45.7727 31.8906 45.7727 30.0312C45.7727 25.1982 40.7264 21.2812 34.5 21.2812C28.2736 21.2812 23.2273 25.1982 23.2273 30.0312C23.2273 31.8906 23.967 33.6064 25.2352 35.0146C25.5611 35.377 25.9486 35.7871 26.3625 36.2246C27.4986 37.4346 28.8548 38.8838 29.8676 40.3125C30.7835 41.6113 31.2503 42.9648 31.4793 44.2432H27.1903C26.9966 43.4229 26.6707 42.623 26.1511 41.8848C25.2793 40.6543 24.196 39.499 23.1128 38.3438C22.6548 37.8584 22.1969 37.373 21.7565 36.8809C20.0216 34.9463 19 32.5811 19 30.0312C19 23.3867 25.9398 18 34.5 18C43.0602 18 50 23.3867 50 30.0312C50 32.5811 48.9784 34.9463 47.2347 36.8877C46.7943 37.3799 46.3364 37.8652 45.8784 38.3506C44.7952 39.499 43.7119 40.6543 42.8401 41.8916C42.3205 42.6299 41.9946 43.4297 41.8009 44.25H37.5295C37.7585 42.9717 38.2253 41.6113 39.1412 40.3193C40.154 38.8906 41.5102 37.4414 42.6463 36.2314C43.0602 35.7939 43.4389 35.3838 43.7648 35.0215V35.0146ZM34.5 26.75C32.1662 26.75 30.2727 28.2197 30.2727 30.0312C30.2727 30.6328 29.6386 31.125 28.8636 31.125C28.0886 31.125 27.4545 30.6328 27.4545 30.0312C27.4545 27.0098 30.6074 24.5625 34.5 24.5625C35.275 24.5625 35.9091 25.0547 35.9091 25.6562C35.9091 26.2578 35.275 26.75 34.5 26.75ZM34.5 53C30.6074 53 27.4545 50.5527 27.4545 47.5312V46.4375H41.5455V47.5312C41.5455 50.5527 38.3926 53 34.5 53Z" fill="#C76CD7"/>
</svg>
