<svg width="118" height="50" viewBox="0 0 118 50" fill="none" xmlns="http://www.w3.org/2000/svg">
<path d="M114.993 26.532C115.452 26.5623 115.892 26.7234 116.259 26.9954C116.626 27.2673 116.904 27.6383 117.059 28.0628C117.213 28.4872 117.237 28.9466 117.129 29.3844C117.02 29.8222 116.783 30.2193 116.446 30.527C116.11 30.8347 115.689 31.0394 115.235 31.1161C114.782 31.1927 114.315 31.138 113.893 30.9585C113.471 30.779 113.111 30.4827 112.859 30.1059C112.606 29.7292 112.472 29.2884 112.472 28.8378C112.494 28.2052 112.773 27.6072 113.245 27.1749C113.718 26.7427 114.346 26.5115 114.993 26.532ZM114.993 30.7138C115.368 30.6978 115.731 30.5741 116.035 30.3581C116.34 30.1421 116.573 29.8434 116.705 29.4989C116.837 29.1545 116.863 28.7796 116.78 28.4208C116.696 28.062 116.507 27.7351 116.235 27.4808C115.963 27.2265 115.621 27.0559 115.251 26.9903C114.881 26.9247 114.5 26.9669 114.154 27.1117C113.808 27.2565 113.514 27.4976 113.307 27.8048C113.1 28.1121 112.99 28.4721 112.99 28.8401C112.994 29.0924 113.049 29.3413 113.152 29.5725C113.256 29.8038 113.405 30.0126 113.591 30.187C113.777 30.3613 113.997 30.4977 114.238 30.5881C114.478 30.6786 114.735 30.7213 114.993 30.7138ZM114.126 27.6375H115.156C115.262 27.625 115.369 27.6343 115.47 27.665C115.571 27.6957 115.665 27.747 115.745 27.8155C115.825 27.8841 115.889 27.9683 115.933 28.0628C115.977 28.1573 116.001 28.2598 116.002 28.3637C116.004 28.5076 115.957 28.6482 115.868 28.7629C115.779 28.8775 115.654 28.9595 115.511 28.9957V29.0082C115.547 29.0484 115.578 29.0929 115.604 29.1405L116.115 30.0189H115.561L115.063 29.0962H114.631V30.0189H114.126V27.6375ZM115.055 28.768C115.111 28.7738 115.168 28.7674 115.222 28.7494C115.276 28.7314 115.325 28.7022 115.367 28.6637C115.408 28.6253 115.44 28.5786 115.461 28.5267C115.482 28.4749 115.491 28.4193 115.487 28.3637C115.49 28.3092 115.48 28.2549 115.458 28.2045C115.437 28.1542 115.404 28.1091 115.363 28.0723C115.322 28.0356 115.273 28.0081 115.219 27.9919C115.166 27.9756 115.11 27.971 115.055 27.9782H114.629V28.768H115.055Z" fill="black"/>
<path d="M7.53834 13.2242L0 0.3125H4.66352L8.20961 6.84611C8.94413 8.22131 9.551 9.84691 9.58291 9.81568H9.64673C9.64673 9.81568 10.2849 8.22188 11.0206 6.84611L14.5342 0.3125H19.1977L11.6617 13.2242V22.5076H7.5424L7.53834 13.2242Z" fill="black"/>
<path d="M48.9474 0.3125H53.0668V14.5363C53.0668 17.5059 55.0469 19.1922 58.0819 19.1922C61.1168 19.1922 63.1295 17.5036 63.1295 14.5028V0.3125H67.2488V14.5363C67.2488 19.5068 63.5756 22.8829 58.1132 22.8829C52.6189 22.8829 48.9463 19.5068 48.9463 14.5363L48.9474 0.3125Z" fill="black"/>
<path d="M7.59277 27.1787H11.7121L20.3064 39.9967C21.0022 41.1062 21.6316 42.2543 22.1914 43.4352H22.2552C22.2552 43.4352 22.0312 41.3094 22.0312 39.9967V27.1787H26.1204V49.3738H22.0312L13.4381 36.5899C12.7427 35.4801 12.1135 34.3318 11.5537 33.1508H11.4928C11.4928 33.1508 11.7161 35.2766 11.7161 36.5899V49.3755H7.59683L7.59277 27.1787Z" fill="black"/>
<path d="M37.1556 27.1797H33.0352V49.3748H37.1556V27.1797Z" fill="black"/>
<path d="M54.2836 26.8041C60.9917 26.8041 66.0387 31.7746 66.0387 38.1521C66.0197 40.7008 65.144 43.1726 63.5468 45.1859L66.1031 47.4367L63.7389 50.0002L61.2151 47.5616C59.214 49.0184 56.7773 49.7877 54.2836 49.7498C52.7317 49.7605 51.1934 49.4666 49.7596 48.8856C48.3258 48.3045 47.0255 47.4481 45.9356 46.3669C44.8457 45.2857 43.9883 44.0017 43.414 42.5908C42.8398 41.1798 42.5604 39.6705 42.5923 38.1521C42.5734 36.6488 42.8636 35.1571 43.4456 33.7658C44.0277 32.3745 44.8897 31.1119 45.9805 30.0532C47.0712 28.9945 48.3683 28.1613 49.7947 27.6032C51.2212 27.045 52.7477 26.7733 54.2836 26.8041ZM54.2836 46.0614C55.6894 46.0523 57.0634 45.6511 58.2445 44.9049L55.7207 42.5599L58.0844 40.0281L60.5438 42.4355C61.3523 41.1466 61.7832 39.665 61.7895 38.1526C61.7895 33.7443 58.4992 30.4937 54.283 30.4937C50.1301 30.4937 46.8398 33.7443 46.8398 38.1526C46.8398 42.6853 50.1301 46.062 54.283 46.062" fill="black"/>
<path d="M71.5232 27.1787H75.6425V41.4037C75.6425 44.3732 77.6233 46.0596 80.6576 46.0596C83.692 46.0596 85.7053 44.371 85.7053 41.3702V27.1753H89.8246V41.4037C89.8246 46.3741 86.1508 49.7502 80.6884 49.7502C75.1946 49.7502 71.5215 46.3741 71.5215 41.4037L71.5232 27.1787Z" fill="black"/>
<path d="M96.5322 27.1787H110.109V30.6485H100.652V36.4644H108.286V39.9342H100.653V45.9046H110.619V49.3744H96.5322V27.1787Z" fill="black"/>
<path d="M23.0214 19.3022C22.867 19.3067 22.7146 19.2676 22.5824 19.1895C22.4502 19.1115 22.3438 18.9978 22.2758 18.8622C22.2406 18.7749 22.2248 18.6812 22.2293 18.5875C22.2338 18.4938 22.2586 18.402 22.302 18.3184C22.3454 18.2347 22.4065 18.161 22.4812 18.1021C22.5559 18.0433 22.6425 18.0006 22.7353 17.977C26.3093 16.8011 31.7137 10.5956 31.7682 10.5315C31.9075 10.3827 32.096 10.2868 32.3005 10.261C32.505 10.2351 32.7123 10.2808 32.8857 10.3901C32.9675 10.4368 33.0378 10.5006 33.0917 10.577C33.1455 10.6533 33.1815 10.7403 33.1971 10.8318C33.2127 10.9232 33.2076 11.017 33.182 11.1063C33.1565 11.1956 33.1111 11.2783 33.0493 11.3485C32.8172 11.6177 27.3089 17.9395 23.3068 19.2562C23.2149 19.2869 23.1185 19.3024 23.0214 19.3022Z" fill="black"/>
<path d="M25.1297 21.2209C25.0094 21.2224 24.8901 21.1986 24.7799 21.151C24.6698 21.1033 24.5715 21.0331 24.4915 20.945C24.4293 20.875 24.3835 20.7925 24.3575 20.7033C24.3314 20.614 24.3258 20.5203 24.341 20.4287C24.3562 20.3371 24.3918 20.2499 24.4453 20.1733C24.4988 20.0967 24.5688 20.0325 24.6505 19.9854C27.3167 18.3644 29.7793 16.4427 31.9875 14.2598C33.4165 12.7523 34.1708 11.4208 34.111 10.5049C34.0944 10.2622 34.008 10.0291 33.8617 9.83242C33.7154 9.63578 33.5152 9.4837 33.2842 9.39376C32.1146 8.80779 31.2455 9.54366 29.0599 11.795C27.1266 13.9601 24.8388 15.7956 22.2903 17.2265C22.1096 17.3226 21.8997 17.3526 21.6984 17.3109C21.4971 17.2693 21.3176 17.1588 21.192 16.9994C21.138 16.9229 21.1016 16.8357 21.0856 16.744C21.0695 16.6524 21.0741 16.5583 21.099 16.4686C21.1239 16.3788 21.1686 16.2955 21.2298 16.2243C21.2911 16.1532 21.3675 16.096 21.4537 16.0568C23.8555 14.698 26.0118 12.9607 27.8357 10.9149C28.67 9.96562 29.6194 9.11942 30.663 8.39501C31.1622 8.06001 31.7457 7.86536 32.35 7.83222C32.9543 7.79909 33.5564 7.92873 34.0907 8.20707C34.5407 8.39815 34.9291 8.70564 35.214 9.0965C35.4989 9.48735 35.6695 9.94679 35.7077 10.4254C35.8771 13.0248 32.2904 16.8103 25.6078 21.0829C25.4659 21.1725 25.3004 21.2196 25.1315 21.2186" fill="black"/>
<path d="M40.2006 19.9597H40.1647C39.4825 19.9075 38.8251 19.6865 38.2541 19.3175C37.4337 18.7934 36.4242 17.7203 36.2739 15.5882C36.2375 14.5236 36.3267 13.4584 36.5397 12.4137C36.81 11.3244 36.8475 10.1922 36.6499 9.08811C36.466 8.43629 36.0001 7.4699 34.0843 6.61367C33.5742 6.38785 33.0127 6.2962 32.4553 6.34778C31.8979 6.39937 31.3639 6.59239 30.9061 6.90778C29.5912 7.76189 28.3838 8.76472 27.3089 9.89552C25.631 11.5075 23.8957 13.1745 21.832 14.0262C21.6446 14.1071 21.4338 14.1191 21.2381 14.0601C21.0424 14.0011 20.875 13.8749 20.7668 13.7049C20.7229 13.6219 20.6978 13.5307 20.6932 13.4374C20.6885 13.3441 20.7045 13.2509 20.7399 13.1641C20.7754 13.0774 20.8295 12.9992 20.8986 12.9347C20.9677 12.8703 21.0502 12.8212 21.1404 12.7907C22.9169 12.0571 24.5443 10.494 26.1184 8.98194C27.2824 7.75744 28.5946 6.67633 30.0259 5.76254C30.7271 5.30792 31.5352 5.03586 32.3738 4.97207C33.2124 4.90829 34.0537 5.05489 34.8183 5.39802C36.6893 6.23438 37.7952 7.3359 38.1984 8.76561C38.5465 9.99772 38.3284 11.3207 38.1178 12.6056C37.9222 13.5598 37.8373 14.5325 37.8648 15.5053C38.0742 18.4743 40.2111 18.5902 40.2325 18.5907C40.3307 18.5883 40.4283 18.605 40.5198 18.6397C40.6114 18.6744 40.695 18.7265 40.7658 18.7931C40.8366 18.8596 40.8933 18.9392 40.9325 19.0272C40.9717 19.1153 40.9927 19.2101 40.9943 19.3061C40.9717 19.4941 40.8767 19.6665 40.7287 19.7883C40.5807 19.91 40.3908 19.9719 40.1977 19.9614" fill="black"/>
<path d="M41.7331 18.0405C41.5242 18.0427 41.3218 17.97 41.1639 17.8361C39.3822 16.2815 39.453 14.0563 39.522 11.9044C39.6264 8.64125 39.7251 5.55983 34.2522 3.90982C30.9063 2.90142 29.0184 4.71382 26.6286 7.00714C25.2297 8.34997 23.7857 9.7388 21.8815 10.6598C21.6983 10.7503 21.4881 10.7739 21.2888 10.7262C21.0894 10.6785 20.9141 10.5628 20.7942 10.3997C20.7438 10.3207 20.7114 10.2319 20.6995 10.1394C20.6876 10.0469 20.6963 9.95304 20.7251 9.86421C20.7539 9.77538 20.8021 9.69374 20.8663 9.62493C20.9306 9.55612 21.0093 9.50178 21.0971 9.46569C22.717 8.57236 24.1824 7.43409 25.4392 6.09299C27.8916 3.73834 30.4288 1.30421 34.7802 2.61695C37.7037 3.50044 39.5609 4.86315 40.4573 6.78797C41.2295 8.44707 41.1726 10.2237 41.1181 11.9418C41.0531 13.9774 40.9968 15.7358 42.3023 16.8748C42.3748 16.9344 42.4329 17.0089 42.4726 17.093C42.5122 17.1772 42.5323 17.2688 42.5315 17.3615C42.5307 17.4541 42.5089 17.5454 42.4678 17.6289C42.4266 17.7123 42.3671 17.7858 42.2936 17.8441C42.1368 17.9727 41.9377 18.0424 41.7331 18.0405Z" fill="black"/>
<path d="M21.4893 6.85543C21.5879 6.85571 21.6859 6.83997 21.7793 6.80887C23.2165 6.32908 24.2556 5.40755 25.355 4.43151C27.0515 2.92685 28.8042 1.37167 32.2969 1.37167H32.4019C35.3214 1.39778 37.6497 2.09106 39.3218 3.43219C40.027 3.96746 40.5928 4.65834 40.973 5.44843C41.0555 5.63029 41.2036 5.77596 41.3891 5.85748C41.5745 5.939 41.7842 5.95065 41.9779 5.89018C42.0721 5.87095 42.1611 5.83257 42.2392 5.77752C42.3173 5.72247 42.3827 5.65197 42.4312 5.5706C42.4796 5.48923 42.5101 5.39881 42.5206 5.30518C42.531 5.21156 42.5213 5.11683 42.4919 5.02713C42.0427 4.03573 41.3545 3.16579 40.4862 2.49192C39.1269 1.37621 36.6234 0.0384833 32.4176 0.000441034C28.1707 -0.0336266 25.9694 1.91277 24.2068 3.47818C23.3554 4.3532 22.3325 5.05129 21.1992 5.53076C21.1064 5.55472 21.0199 5.59773 20.9454 5.65692C20.8709 5.7161 20.8101 5.79012 20.7671 5.87405C20.7241 5.95799 20.6998 6.04991 20.6959 6.14373C20.6919 6.23756 20.7085 6.33112 20.7443 6.41822C20.8126 6.55321 20.919 6.66617 21.051 6.74367C21.1829 6.82117 21.3348 6.85996 21.4887 6.85543" fill="black"/>
<path d="M43.0105 15.4649C42.952 15.4649 42.8937 15.4594 42.8364 15.4484C42.7402 15.4371 42.6474 15.4064 42.5639 15.3584C42.4803 15.3104 42.4078 15.2461 42.3508 15.1694C42.2938 15.0927 42.2536 15.0054 42.2326 14.9128C42.2116 14.8203 42.2104 14.7244 42.2289 14.6314C43.134 11.1077 41.9307 7.21031 41.918 7.1717C41.8942 7.08016 41.8901 6.98479 41.906 6.89163C41.9219 6.79847 41.9574 6.70955 42.0102 6.63053C42.0631 6.55151 42.1322 6.48411 42.2131 6.43261C42.294 6.38111 42.3849 6.34663 42.4802 6.33136C42.6754 6.2777 42.8841 6.29747 43.0653 6.38678C43.2464 6.47609 43.3868 6.62848 43.4589 6.81399C43.5129 6.98433 44.776 11.0781 43.7873 14.9266C43.7361 15.0876 43.6321 15.2276 43.4913 15.3248C43.3505 15.422 43.1809 15.4711 43.0087 15.4643" fill="black"/>
<path d="M37.2616 21.8243C37.1125 21.8249 36.9658 21.7883 36.8351 21.7182C34.5916 20.498 33.9394 18.9632 33.7874 17.8907C33.681 17.1837 33.7631 16.4617 34.0259 15.7949C34.1184 15.617 34.2743 15.4783 34.4641 15.4051C34.6539 15.3319 34.8646 15.3292 35.0563 15.3975C35.149 15.4207 35.2356 15.4629 35.3105 15.5213C35.3854 15.5796 35.4467 15.6528 35.4906 15.7361C35.5344 15.8193 35.5598 15.9107 35.5649 16.0043C35.5701 16.0978 35.5549 16.1913 35.5204 16.2787C35.4723 16.3923 34.4912 18.8179 37.6909 20.5582C37.7765 20.5986 37.8521 20.6568 37.9122 20.7288C37.9724 20.8008 38.0158 20.8848 38.0394 20.9749C38.0629 21.065 38.066 21.159 38.0485 21.2505C38.031 21.3419 37.9933 21.4284 37.9381 21.5041C37.8589 21.6053 37.7565 21.6868 37.6392 21.7422C37.5219 21.7975 37.3929 21.8251 37.2627 21.8226" fill="black"/>
<path d="M33.4312 22.4806C33.2819 22.4842 33.1344 22.4474 33.005 22.3743C32.8756 22.3011 32.7693 22.1945 32.6979 22.0661C32.5238 21.7254 31.8908 20.8135 31.0693 20.6949C30.3592 20.5921 29.6061 21.1315 29.0996 21.6033C28.9459 21.7383 28.7486 21.816 28.5423 21.8229C28.336 21.8297 28.1338 21.7653 27.9711 21.6408C27.8954 21.5851 27.8332 21.5138 27.789 21.4318C27.7448 21.3498 27.7197 21.2593 27.7155 21.1667C27.7113 21.0741 27.728 20.9817 27.7646 20.8962C27.8012 20.8107 27.8567 20.7342 27.927 20.6722C29.0555 19.624 30.2042 19.1777 31.3426 19.3447C32.1836 19.4904 32.9445 19.9239 33.4893 20.5677C33.7532 20.858 33.9795 21.1792 34.1628 21.5239C34.2025 21.6091 34.2231 21.7016 34.2231 21.7953C34.2232 21.889 34.2028 21.9816 34.1633 22.0669C34.1238 22.1522 34.0661 22.2282 33.994 22.2899C33.922 22.3515 33.8373 22.3974 33.7457 22.4244C33.6449 22.4618 33.5379 22.481 33.4301 22.4812" fill="black"/>
</svg>
