<svg width="70" height="70" viewBox="0 0 70 70" fill="none" xmlns="http://www.w3.org/2000/svg">
<rect width="70" height="70" rx="4" fill="#EBCDF0"/>
<g clip-path="url(#clip0_346_228)">
<path d="M20.2482 24.8652C20.0848 24.6699 20 24.4355 20 24.2012C20 23.5371 20.666 23 21.4895 23H28.1072C28.7854 23 29.4211 23.2881 29.7662 23.7568L33.9137 29.3281C30.9953 29.626 28.3857 30.7246 26.4422 32.3506L20.2482 24.8652ZM50.7457 24.8652L44.5578 32.3506C42.6143 30.7246 40.0047 29.626 37.0863 29.3281L41.2338 23.7568C41.585 23.2881 42.2146 23 42.8928 23H49.5105C50.334 23 51 23.5371 51 24.2012C51 24.4355 50.9152 24.6699 50.7518 24.8652H50.7457ZM24.8438 39.4062C24.8438 37.127 25.9665 34.9412 27.9649 33.3296C29.9633 31.7179 32.6738 30.8125 35.5 30.8125C38.3262 30.8125 41.0367 31.7179 43.0351 33.3296C45.0335 34.9412 46.1562 37.127 46.1562 39.4062C46.1562 41.6855 45.0335 43.8713 43.0351 45.483C41.0367 47.0946 38.3262 48 35.5 48C32.6738 48 29.9633 47.0946 27.9649 45.483C25.9665 43.8713 24.8438 41.6855 24.8438 39.4062ZM36.0086 34.7725C35.8027 34.4307 35.2033 34.4307 34.9914 34.7725L33.6352 36.9893C33.5504 37.126 33.393 37.2188 33.2113 37.2383L30.1719 37.5947C29.7057 37.6484 29.524 38.1074 29.857 38.376L32.0549 40.1045C32.1881 40.2119 32.2486 40.3584 32.2184 40.5098L31.6977 42.9463C31.6189 43.3174 32.1033 43.6055 32.5211 43.4297L35.2336 42.2773C35.3971 42.209 35.5969 42.209 35.7604 42.2773L38.4729 43.4297C38.8906 43.6055 39.375 43.3223 39.2963 42.9463L38.7756 40.5098C38.7453 40.3633 38.8059 40.2119 38.9391 40.1045L41.1369 38.376C41.476 38.1123 41.2883 37.6533 40.8221 37.5947L37.7887 37.2383C37.607 37.2188 37.4436 37.1211 37.3648 36.9893L36.0086 34.7725Z" fill="#C76CD7"/>
</g>
<defs>
<clipPath id="clip0_346_228">
<rect width="31" height="25" fill="white" transform="translate(20 23)"/>
</clipPath>
</defs>
</svg>
