<svg width="70" height="70" viewBox="0 0 70 70" fill="none" xmlns="http://www.w3.org/2000/svg">
<rect width="70" height="70" rx="4" fill="#EBCDF0"/>
<path d="M35 18C35.885 18 36.6 18.8937 36.6 20V24H42.6C44.59 24 46.2 26.0125 46.2 28.5V45.5C46.2 47.9875 44.59 50 42.6 50H27.4C25.41 50 23.8 47.9875 23.8 45.5V28.5C23.8 26.0125 25.41 24 27.4 24H33.4V20C33.4 18.8937 34.115 18 35 18ZM29.4 42C28.96 42 28.6 42.45 28.6 43C28.6 43.55 28.96 44 29.4 44H31C31.44 44 31.8 43.55 31.8 43C31.8 42.45 31.44 42 31 42H29.4ZM34.2 42C33.76 42 33.4 42.45 33.4 43C33.4 43.55 33.76 44 34.2 44H35.8C36.24 44 36.6 43.55 36.6 43C36.6 42.45 36.24 42 35.8 42H34.2ZM39 42C38.56 42 38.2 42.45 38.2 43C38.2 43.55 38.56 44 39 44H40.6C41.04 44 41.4 43.55 41.4 43C41.4 42.45 41.04 42 40.6 42H39ZM32.2 34C32.2 33.337 31.9893 32.7011 31.6142 32.2322C31.2391 31.7634 30.7304 31.5 30.2 31.5C29.6696 31.5 29.1609 31.7634 28.7858 32.2322C28.4107 32.7011 28.2 33.337 28.2 34C28.2 34.663 28.4107 35.2989 28.7858 35.7678C29.1609 36.2366 29.6696 36.5 30.2 36.5C30.7304 36.5 31.2391 36.2366 31.6142 35.7678C31.9893 35.2989 32.2 34.663 32.2 34ZM39.8 36.5C40.3304 36.5 40.8391 36.2366 41.2142 35.7678C41.5893 35.2989 41.8 34.663 41.8 34C41.8 33.337 41.5893 32.7011 41.2142 32.2322C40.8391 31.7634 40.3304 31.5 39.8 31.5C39.2696 31.5 38.7609 31.7634 38.3858 32.2322C38.0107 32.7011 37.8 33.337 37.8 34C37.8 34.663 38.0107 35.2989 38.3858 35.7678C38.7609 36.2366 39.2696 36.5 39.8 36.5ZM21.4 32H22.2V44H21.4C20.075 44 19 42.6562 19 41V35C19 33.3438 20.075 32 21.4 32ZM48.6 32C49.925 32 51 33.3438 51 35V41C51 42.6562 49.925 44 48.6 44H47.8V32H48.6Z" fill="#C76CD7"/>
</svg>
