<svg width="27" height="42" viewBox="0 0 27 42" fill="none" xmlns="http://www.w3.org/2000/svg">
<path d="M6.24995 12.375C6.24995 9.20352 8.85089 6.625 12.05 6.625H14.95C18.149 6.625 20.75 9.20352 20.75 12.375V12.6984C20.75 14.657 19.744 16.4809 18.0856 17.532L14.2612 19.9668C11.9774 21.4223 10.6 23.9289 10.6 26.6152V26.75C10.6 28.3402 11.8959 29.625 13.5 29.625C15.104 29.625 16.4 28.3402 16.4 26.75V26.6242C16.4 25.8875 16.7806 25.2047 17.3968 24.8094L21.2212 22.3746C24.5381 20.2543 26.5499 16.6156 26.5499 12.6984V12.375C26.5499 6.02305 21.3571 0.875 14.95 0.875H12.05C5.64276 0.875 0.449951 6.02305 0.449951 12.375C0.449951 13.9652 1.74589 15.25 3.34995 15.25C4.95401 15.25 6.24995 13.9652 6.24995 12.375ZM13.5 41.125C14.4614 41.125 15.3834 40.7464 16.0632 40.0724C16.743 39.3985 17.125 38.4844 17.125 37.5312C17.125 36.5781 16.743 35.664 16.0632 34.9901C15.3834 34.3161 14.4614 33.9375 13.5 33.9375C12.5385 33.9375 11.6165 34.3161 10.9367 34.9901C10.2569 35.664 9.87495 36.5781 9.87495 37.5312C9.87495 38.4844 10.2569 39.3985 10.9367 40.0724C11.6165 40.7464 12.5385 41.125 13.5 41.125Z" fill="#424242"/>
</svg>
