<?xml version="1.0" standalone="no"?>
<!DOCTYPE svg PUBLIC "-//W3C//DTD SVG 20010904//EN"
 "http://www.w3.org/TR/2001/REC-SVG-20010904/DTD/svg10.dtd">
<svg version="1.0" xmlns="http://www.w3.org/2000/svg"
 width="700.000000pt" height="700.000000pt" viewBox="0 0 700.000000 700.000000"
 preserveAspectRatio="xMidYMid meet">
<metadata>
Created by potrace 1.14, written by Peter Selinger 2001-2017
</metadata>
<g transform="translate(0.000000,700.000000) scale(0.100000,-0.100000)"
fill="#000000" stroke="none">
<path d="M3259 6296 c-2 -2 -40 -7 -84 -10 -438 -37 -850 -186 -1225 -444 -81
-55 -302 -227 -342 -265 -7 -7 -46 -41 -87 -77 -41 -36 -101 -91 -135 -124
-187 -180 -474 -369 -695 -456 -124 -49 -164 -175 -82 -263 89 -97 204 -87
456 40 141 72 334 208 502 355 27 24 67 58 89 77 21 18 70 61 108 95 38 33 78
69 90 79 12 9 30 26 41 36 146 133 411 316 581 400 187 92 415 166 574 186 30
4 58 8 61 10 38 24 708 23 783 0 6 -2 38 -6 71 -9 301 -29 679 -141 935 -278
117 -62 262 -157 326 -213 7 -5 38 -32 70 -60 114 -95 231 -245 315 -400 58
-107 97 -140 184 -152 124 -17 231 74 218 186 -5 48 -90 207 -171 320 -173
244 -492 498 -821 653 -292 139 -667 244 -1001 283 -25 2 -65 7 -90 10 -25 3
-67 8 -95 11 -60 6 -570 15 -576 10z"/>
<path d="M3379 5736 c-2 -2 -33 -6 -69 -10 -309 -30 -616 -162 -945 -405 -99
-73 -100 -73 -235 -191 -140 -122 -215 -192 -420 -393 -221 -218 -254 -247
-390 -358 -200 -162 -395 -296 -590 -405 -117 -66 -147 -95 -158 -155 -20
-107 66 -198 191 -201 44 -1 68 6 153 49 173 86 386 227 584 387 41 33 77 63
80 66 3 3 41 37 85 75 43 39 87 77 96 85 91 84 172 161 265 249 370 354 479
450 660 578 388 276 749 348 1187 238 178 -45 453 -150 607 -232 508 -271 735
-619 785 -1207 6 -69 7 -314 2 -716 -6 -427 -1 -511 43 -710 35 -158 90 -287
174 -414 66 -99 181 -218 239 -247 113 -58 273 8 291 121 9 59 -9 101 -70 160
-141 138 -220 299 -258 523 -22 129 -25 185 -24 402 4 828 2 1005 -17 1075 -2
8 -7 33 -10 56 -3 22 -10 55 -15 72 -5 18 -7 32 -5 32 2 0 -2 18 -10 40 -8 22
-12 40 -10 40 2 0 -12 46 -31 103 -185 534 -617 909 -1328 1153 -192 66 -294
92 -461 120 -80 13 -386 29 -396 20z"/>
<path d="M3508 5059 c-210 -14 -367 -61 -568 -170 -44 -24 -272 -180 -355
-242 -230 -174 -376 -302 -645 -567 -556 -548 -887 -806 -1245 -966 -93 -41
-127 -84 -127 -159 0 -83 56 -145 151 -167 69 -16 110 -4 270 76 164 81 302
168 466 291 200 151 249 193 580 500 22 20 123 119 225 219 319 312 499 461
800 663 211 142 335 183 538 178 131 -3 228 -28 362 -91 343 -162 560 -393
595 -629 3 -23 8 -52 11 -65 3 -14 7 -106 9 -205 4 -194 -6 -296 -49 -506 -25
-126 -30 -154 -41 -244 -4 -27 -8 -61 -11 -75 -17 -98 -23 -452 -10 -575 35
-334 193 -632 427 -805 140 -104 324 -180 473 -196 33 -4 68 -8 76 -9 53 -7
139 42 170 97 64 114 -14 227 -172 248 -258 36 -461 227 -541 510 -34 119 -41
181 -41 365 -1 208 10 334 44 530 11 61 22 124 24 140 6 35 13 78 20 120 3 17
8 53 11 80 3 28 9 84 14 125 10 77 8 389 -2 447 -71 403 -318 699 -777 928
-182 90 -336 138 -492 151 -40 3 -75 7 -78 8 -3 1 -53 -1 -112 -5z"/>
<path d="M5994 4716 c-58 -18 -101 -53 -119 -98 -21 -53 -20 -69 20 -225 19
-76 36 -149 39 -163 4 -23 18 -98 21 -110 3 -9 19 -105 20 -115 2 -21 17 -131
21 -155 2 -14 7 -59 10 -100 3 -41 9 -104 13 -140 8 -83 6 -400 -3 -505 -13
-146 -28 -255 -50 -350 -36 -165 -33 -200 23 -256 93 -93 267 -71 326 41 37
70 82 327 101 575 13 160 7 524 -11 665 -3 19 -7 58 -10 85 -35 311 -121 705
-170 776 -48 69 -147 101 -231 75z"/>
<path d="M3450 4343 c-152 -19 -285 -65 -387 -134 -54 -37 -195 -140 -203
-149 -3 -3 -41 -35 -85 -70 -80 -65 -355 -333 -455 -445 -125 -141 -347 -360
-484 -480 -38 -33 -76 -67 -85 -76 -9 -9 -74 -63 -146 -120 -246 -198 -518
-385 -760 -525 -132 -76 -158 -99 -176 -151 -50 -151 143 -272 302 -188 299
156 843 539 1109 783 14 12 60 53 102 90 42 37 161 154 265 261 599 618 730
737 903 820 71 34 80 36 175 36 91 -1 106 -4 169 -33 100 -46 149 -91 187
-168 28 -57 33 -76 32 -142 0 -192 -127 -443 -372 -737 -101 -121 -291 -311
-496 -496 -407 -366 -830 -688 -1305 -990 -236 -151 -227 -144 -246 -181 -63
-121 47 -256 197 -244 26 3 64 13 85 24 52 27 493 321 669 447 134 95 465 342
475 354 3 3 59 49 125 102 257 205 603 530 756 709 35 41 66 77 69 80 25 25
131 165 187 250 242 360 311 653 214 911 -39 104 -129 221 -222 291 -53 39
-203 113 -280 136 -91 28 -240 44 -319 35z"/>
<path d="M3419 3727 c-48 -18 -66 -32 -124 -97 -392 -434 -913 -945 -1200
-1175 -28 -22 -52 -42 -55 -45 -3 -3 -45 -37 -95 -76 -203 -160 -427 -312
-587 -397 -84 -46 -271 -127 -291 -127 -25 0 -79 -48 -97 -86 -44 -90 -4 -188
95 -229 83 -34 218 5 475 139 519 269 1274 911 1967 1671 168 185 180 203 182
266 3 112 -151 201 -270 156z"/>
<path d="M4020 2459 c-81 -25 -119 -72 -154 -192 -108 -374 1 -767 296 -1068
123 -124 326 -272 450 -327 131 -58 288 26 288 154 0 56 -34 106 -98 144 -210
125 -358 255 -450 394 -124 190 -159 417 -97 631 29 99 28 136 -5 190 -37 60
-152 97 -230 74z"/>
<path d="M2965 1465 c-193 -35 -391 -143 -573 -310 -54 -49 -72 -83 -72 -132
0 -80 75 -156 167 -169 56 -8 140 18 178 54 45 42 154 124 205 154 106 62 241
87 328 61 115 -34 245 -145 337 -287 62 -96 78 -111 140 -135 52 -20 118 -15
178 14 72 34 109 131 77 202 -38 85 -154 242 -235 316 -160 150 -362 237 -559
242 -55 1 -132 -3 -171 -10z"/>
</g>
</svg>
