<svg width="33" height="32" viewBox="0 0 33 32" fill="none" xmlns="http://www.w3.org/2000/svg">
<path d="M29.7141 27.1281C29.931 27.1344 30.1452 27.0794 30.331 26.9697C30.5168 26.8601 30.6664 26.7003 30.7619 26.5096C30.8114 26.3869 30.8337 26.2553 30.8273 26.1236C30.821 25.9918 30.7861 25.8629 30.7251 25.7453C30.664 25.6277 30.5782 25.5242 30.4732 25.4414C30.3682 25.3587 30.2465 25.2988 30.1161 25.2655C25.0931 23.6128 17.4974 14.8914 17.4208 14.8012C17.225 14.5921 16.96 14.4574 16.6726 14.4211C16.3852 14.3847 16.0939 14.449 15.8503 14.6025C15.7352 14.6682 15.6364 14.7579 15.5608 14.8652C15.4851 14.9725 15.4345 15.0947 15.4126 15.2233C15.3906 15.3518 15.3979 15.4836 15.4338 15.6091C15.4697 15.7346 15.5334 15.8508 15.6203 15.9496C15.9465 16.3278 23.6881 25.2128 29.3129 27.0634C29.442 27.1065 29.5776 27.1284 29.7141 27.1281Z" fill="#C76CD7"/>
<path d="M26.7516 29.8253C26.9208 29.8274 27.0885 29.7939 27.2433 29.7269C27.398 29.66 27.5363 29.5613 27.6486 29.4374C27.7361 29.3391 27.8005 29.2231 27.837 29.0977C27.8736 28.9723 27.8815 28.8406 27.8602 28.7118C27.8389 28.5831 27.7888 28.4605 27.7136 28.3529C27.6385 28.2452 27.54 28.155 27.4252 28.0888C23.6779 25.8106 20.217 23.1098 17.1133 20.0417C15.105 17.923 14.0449 16.0517 14.1289 14.7645C14.1522 14.4234 14.2737 14.0957 14.4793 13.8193C14.6849 13.5429 14.9663 13.3292 15.2909 13.2028C16.9348 12.3792 18.1563 13.4134 21.228 16.5775C23.9452 19.6206 27.1605 22.2003 30.7423 24.2113C30.9964 24.3464 31.2913 24.3885 31.5742 24.33C31.8571 24.2715 32.1094 24.1162 32.2859 23.8921C32.3619 23.7846 32.4129 23.6621 32.4355 23.5332C32.4581 23.4044 32.4517 23.2722 32.4166 23.1461C32.3816 23.0199 32.3189 22.9028 32.2328 22.8028C32.1466 22.7029 32.0393 22.6225 31.9181 22.5674C28.5425 20.6576 25.5119 18.2159 22.9485 15.3406C21.776 14.0065 20.4416 12.8172 18.975 11.7991C18.2734 11.3282 17.4533 11.0547 16.6039 11.0081C15.7545 10.9615 14.9084 11.1437 14.1574 11.5349C13.5249 11.8035 12.9791 12.2357 12.5787 12.785C12.1783 13.3343 11.9384 13.98 11.8849 14.6527C11.6468 18.306 16.6877 23.6263 26.0797 29.6314C26.2792 29.7572 26.5118 29.8234 26.7492 29.8221" fill="#C76CD7"/>
<path d="M5.56966 28.0526L5.62022 28.0526C6.57896 27.9792 7.50293 27.6687 8.3054 27.15C9.45841 26.4135 10.8772 24.9052 11.0884 21.9087C11.1396 20.4124 11.0143 18.9153 10.715 17.4471C10.3351 15.9161 10.2823 14.3249 10.56 12.7731C10.8185 11.857 11.4733 10.4988 14.1658 9.2954C14.8828 8.97803 15.672 8.84923 16.4553 8.92172C17.2387 8.99422 17.9892 9.2655 18.6327 9.70877C20.4807 10.9092 22.1776 12.3186 23.6883 13.9079C26.0465 16.1734 28.4854 18.5164 31.3859 19.7134C31.6492 19.8271 31.9456 19.844 32.2206 19.761C32.4956 19.6781 32.7308 19.5008 32.883 19.2617C32.9447 19.1451 32.9799 19.0169 32.9864 18.8858C32.993 18.7546 32.9705 18.6237 32.9207 18.5018C32.8709 18.3799 32.7948 18.2699 32.6977 18.1794C32.6006 18.0888 32.4847 18.0198 32.3579 17.9769C29.8611 16.9459 27.5738 14.749 25.3616 12.6239C23.7256 10.9029 21.8814 9.38348 19.8697 8.09919C18.8842 7.46025 17.7485 7.07787 16.5699 6.98822C15.3913 6.89858 14.2089 7.10462 13.1343 7.58687C10.5046 8.76233 8.9504 10.3105 8.38368 12.3199C7.89443 14.0515 8.20103 15.9109 8.49703 17.7168C8.7719 19.0578 8.89116 20.425 8.85255 21.7922C8.55818 25.965 5.55498 26.1278 5.52481 26.1286C5.38689 26.1252 5.24965 26.1486 5.12101 26.1974C4.99237 26.2462 4.87489 26.3194 4.77534 26.4129C4.6758 26.5064 4.59616 26.6183 4.54103 26.7421C4.48591 26.8658 4.45638 26.9991 4.45417 27.1341C4.48592 27.3982 4.61943 27.6405 4.82747 27.8117C5.03551 27.9828 5.3024 28.0698 5.57374 28.055" fill="#C76CD7"/>
<path d="M3.41688 25.3552C3.71044 25.3584 3.995 25.2562 4.21681 25.0679C6.72097 22.883 6.62148 19.7556 6.52445 16.7312C6.37767 12.145 6.23905 7.81422 13.9309 5.49521C18.6335 4.07794 21.2868 6.62518 24.6456 9.84834C26.6115 11.7356 28.6411 13.6876 31.3173 14.9819C31.5748 15.1092 31.8702 15.1423 32.1504 15.0753C32.4305 15.0083 32.677 14.8456 32.8454 14.6164C32.9164 14.5054 32.9618 14.3805 32.9786 14.2506C32.9953 14.1206 32.983 13.9887 32.9426 13.8638C32.9021 13.739 32.8344 13.6242 32.7441 13.5275C32.6538 13.4308 32.5432 13.3544 32.4198 13.3037C30.1431 12.0482 28.0835 10.4484 26.3172 8.56355C22.8704 5.25421 19.3046 1.83315 13.1889 3.67814C9.07998 4.91984 6.46982 6.83506 5.20999 9.54031C4.12466 11.8721 4.20457 14.3691 4.28122 16.7838C4.37255 19.6447 4.45165 22.1161 2.61695 23.7169C2.51502 23.8006 2.43328 23.9053 2.37758 24.0236C2.32187 24.1418 2.29359 24.2706 2.29476 24.4008C2.29593 24.531 2.32652 24.6594 2.38434 24.7766C2.44216 24.8939 2.52576 24.9972 2.62918 25.0791C2.84949 25.2599 3.12935 25.3579 3.41688 25.3552Z" fill="#C76CD7"/>
<path d="M31.8688 9.63497C31.7301 9.63536 31.5923 9.61325 31.4611 9.56953C29.4413 8.89521 27.9808 7.60005 26.4356 6.22827C24.0513 4.11355 21.5879 1.92781 16.6791 1.92781L16.5315 1.92781C12.4283 1.96452 9.15603 2.93888 6.80598 4.82378C5.81494 5.57607 5.01973 6.54707 4.48529 7.6575C4.36941 7.9131 4.16118 8.11782 3.90053 8.2324C3.63989 8.34698 3.3452 8.36334 3.07299 8.27835C2.94058 8.25134 2.81544 8.19739 2.7057 8.12002C2.59595 8.04265 2.50404 7.94357 2.43593 7.82921C2.36781 7.71485 2.32502 7.58776 2.3103 7.45618C2.29559 7.32459 2.30929 7.19145 2.35052 7.06538C2.98184 5.67203 3.94914 4.44936 5.16944 3.50228C7.07997 1.93419 10.5985 0.0540844 16.5095 0.000618412C22.4784 -0.0472615 25.5721 2.68831 28.0493 4.88842C29.246 6.11821 30.6837 7.09934 32.2765 7.77322C32.4069 7.8069 32.5284 7.86733 32.6331 7.95052C32.7378 8.0337 32.8232 8.13773 32.8837 8.2557C32.9442 8.37366 32.9783 8.50286 32.9838 8.63472C32.9893 8.76658 32.9662 8.89809 32.9158 9.0205C32.8198 9.21021 32.6702 9.36897 32.4848 9.4779C32.2993 9.58683 32.0858 9.64134 31.8696 9.63497" fill="#C76CD7"/>
<path d="M1.62138 21.7348C1.70349 21.7348 1.78541 21.727 1.86601 21.7117C2.0012 21.6957 2.13158 21.6526 2.249 21.5852C2.36643 21.5177 2.46838 21.4273 2.54849 21.3195C2.6286 21.2117 2.68516 21.089 2.71463 20.9589C2.74409 20.8288 2.74584 20.6941 2.71975 20.5633C1.4477 15.6109 3.13888 10.1334 3.15682 10.0791C3.19026 9.95046 3.19599 9.81641 3.17367 9.68548C3.15135 9.55454 3.10145 9.42958 3.02715 9.31852C2.95286 9.20747 2.85578 9.11274 2.74208 9.04036C2.62838 8.96797 2.50053 8.91951 2.36668 8.89805C2.09225 8.82263 1.79892 8.85041 1.54436 8.97594C1.2898 9.10146 1.09243 9.31564 0.991065 9.57636C0.91523 9.81576 -0.859944 15.5694 0.529534 20.9783C0.601502 21.2046 0.747756 21.4013 0.945612 21.5379C1.14347 21.6746 1.38187 21.7435 1.62383 21.734" fill="#C76CD7"/>
<path d="M9.70064 30.6733C9.9101 30.674 10.1163 30.6226 10.3 30.524C13.4532 28.8091 14.3697 26.6521 14.5834 25.1447C14.733 24.151 14.6175 23.1364 14.2482 22.1992C14.1182 21.9491 13.8991 21.7542 13.6323 21.6513C13.3655 21.5484 13.0695 21.5446 12.8 21.6406C12.6697 21.6733 12.548 21.7326 12.4428 21.8146C12.3376 21.8966 12.2513 21.9995 12.1897 22.1165C12.1281 22.2335 12.0925 22.362 12.0852 22.4934C12.078 22.6249 12.0993 22.7563 12.1477 22.8791C12.2154 23.0387 13.5943 26.4478 9.09723 28.8937C8.97692 28.9505 8.87075 29.0324 8.78616 29.1335C8.70157 29.2347 8.6406 29.3527 8.60751 29.4794C8.57442 29.606 8.57001 29.7382 8.5946 29.8667C8.61919 29.9952 8.67218 30.1169 8.74985 30.2232C8.86114 30.3654 9.00503 30.48 9.1699 30.5578C9.33477 30.6355 9.51602 30.6743 9.69901 30.6709" fill="#C76CD7"/>
<path d="M15.0838 31.5955C15.2937 31.6005 15.501 31.5488 15.6829 31.4461C15.8647 31.3433 16.0141 31.1934 16.1145 31.0129C16.3591 30.5341 17.2488 29.2525 18.4034 29.0857C19.4015 28.9413 20.4599 29.6994 21.1717 30.3626C21.3877 30.5522 21.665 30.6614 21.955 30.6711C22.2449 30.6807 22.5291 30.5901 22.7577 30.4152C22.8642 30.337 22.9516 30.2366 23.0137 30.1214C23.0758 30.0062 23.1111 29.879 23.117 29.7488C23.123 29.6187 23.0994 29.4889 23.048 29.3687C22.9966 29.2486 22.9186 29.141 22.8197 29.0538C21.2337 27.5807 19.6192 26.9535 18.0193 27.1881C16.8372 27.3929 15.768 28.0021 15.0023 28.907C14.6313 29.315 14.3133 29.7664 14.0556 30.2508C13.9998 30.3706 13.9709 30.5007 13.9708 30.6323C13.9707 30.764 13.9994 30.8941 14.0549 31.014C14.1105 31.1339 14.1916 31.2407 14.2928 31.3274C14.394 31.4141 14.5131 31.4785 14.6419 31.5165C14.7836 31.5691 14.9339 31.5961 15.0854 31.5963" fill="#C76CD7"/>
</svg>
